<svg xmlns="http://www.w3.org/2000/svg" viewBox="0 0 800 340"><defs><linearGradient id="g" x1="0" x2="1"><stop stop-color="#151b27"/><stop offset=".48" stop-color="#ef4444"/><stop offset="1" stop-color="#0b1020"/></linearGradient><filter id="s"><feDropShadow dx="0" dy="18" stdDeviation="14" flood-color="#000" flood-opacity=".45"/></filter></defs><rect width="800" height="340" rx="30" fill="#0b1020"/><g filter="url(#s)" transform="translate(58 82)"><path d="M28 104h370l30-34h122c33 0 62 20 76 49l24 48h-92l-16-31h-96l-43 46h-91l41-46H145l-34 34H24l28-38H20c-34 0-34-28 8-28z" fill="url(#g)"/><path d="M124 70h198l34-42h92l-35 42h130c27 0 49 13 58 33H88c6-19 18-33 36-33z" fill="#fff" opacity=".18"/><path d="M174 119h118M371 104h148M481 139h76" stroke="#0b1020" stroke-width="14" stroke-linecap="round" opacity=".45"/><path d="M130 134h88M236 134h35M402 84h72" stroke="#ef4444" stroke-width="12" stroke-linecap="round"/></g></svg>