<svg xmlns="http://www.w3.org/2000/svg" viewBox="0 0 900 620">
  <defs>
    <linearGradient id="bg" x1="0" y1="0" x2="1" y2="1">
      <stop stop-color="#0e1628"/>
      <stop offset="1" stop-color="#0a1020"/>
    </linearGradient>
    <linearGradient id="crate" x1="0" y1="0" x2="1" y2="1">
      <stop stop-color="#ffc44d"/>
      <stop offset=".55" stop-color="#ff931f"/>
      <stop offset="1" stop-color="#ff4b57"/>
    </linearGradient>
    <linearGradient id="metal" x1="0" y1="0" x2="1" y2="1">
      <stop stop-color="#cbd5e1"/>
      <stop offset="1" stop-color="#64748b"/>
    </linearGradient>
    <radialGradient id="glow" cx="50%" cy="42%" r="50%">
      <stop stop-color="#ff9d2b" stop-opacity=".38"/>
      <stop offset="1" stop-color="#0a1020" stop-opacity="0"/>
    </radialGradient>
    <filter id="shadow"><feDropShadow dx="0" dy="30" stdDeviation="22" flood-color="#000" flood-opacity=".45"/></filter>
  </defs>
  <rect width="900" height="620" rx="52" fill="url(#bg)"/>
  <circle cx="450" cy="280" r="250" fill="url(#glow)"/>
  <g filter="url(#shadow)">
    <rect x="170" y="165" width="560" height="320" rx="46" fill="#0a1220" stroke="#243046" stroke-width="14"/>
    <path d="M295 165v-40c0-56 40-94 96-94h118c56 0 96 38 96 94v40" fill="none" stroke="url(#metal)" stroke-width="28" stroke-linecap="round"/>
    <rect x="205" y="225" width="490" height="180" rx="30" fill="url(#crate)"/>
    <g opacity=".28" stroke="#111827" stroke-width="11">
      <path d="M205 268h490"/>
      <path d="M205 315h490"/>
      <path d="M205 360h490"/>
    </g>
    <rect x="395" y="268" width="110" height="94" rx="18" fill="#0b1221" opacity=".9"/>
    <rect x="420" y="235" width="58" height="38" rx="6" fill="#cbd5e1" opacity=".85"/>
    <rect x="398" y="269" width="104" height="16" rx="8" fill="#111827" opacity=".3"/>
    <path d="M225 225l-50 38v100l50 42" fill="none" stroke="#0b1221" stroke-width="12" opacity=".26"/>
    <path d="M675 225l50 38v100l-50 42" fill="none" stroke="#0b1221" stroke-width="12" opacity=".26"/>
    <text x="450" y="338" text-anchor="middle" font-family="Inter,Arial" font-size="82" font-weight="900" fill="#0b1221">CASE</text>
    <text x="450" y="534" text-anchor="middle" font-family="Inter,Arial" font-size="32" font-weight="900" fill="#f8fafc">Classic CS2 Case</text>
  </g>
</svg>