<svg xmlns="http://www.w3.org/2000/svg" viewBox="0 0 800 340">
  <defs>
    <linearGradient id="g" x1="0" y1="0" x2="1" y2="0">
      <stop stop-color="#22d3ee"/>
      <stop offset=".45" stop-color="#8b5cf6"/>
      <stop offset="1" stop-color="#f43f5e"/>
    </linearGradient>
    <filter id="shadow"><feDropShadow dx="0" dy="16" stdDeviation="16" flood-color="#000" flood-opacity=".45"/></filter>
  </defs>
  <rect width="800" height="340" rx="30" fill="#0b1020"/>
  <circle cx="650" cy="82" r="145" fill="#8b5cf6" opacity=".15"/>
  <g filter="url(#shadow)" transform="translate(120 48)">
    <path d="M79 157C116 70 214 31 327 42c-60 20-114 55-159 103 60-23 141-28 236-14 53 8 103 11 154 3-42 46-100 77-174 96-103 25-208 6-316-73z" fill="url(#g)"/>
    <path d="M88 156c71 52 148 74 225 71" fill="none" stroke="#fff" stroke-opacity=".18" stroke-width="12" stroke-linecap="round"/>
    <circle cx="76" cy="166" r="46" fill="none" stroke="#dbeafe" stroke-width="18"/>
    <circle cx="76" cy="166" r="20" fill="#0b1020"/>
  </g>
</svg>