<svg xmlns="http://www.w3.org/2000/svg" viewBox="0 0 980 640">
  <defs>
    <linearGradient id="bg" x1="0" y1="0" x2="1" y2="1"><stop stop-color="#10182b"/><stop offset="1" stop-color="#070d18"/></linearGradient>
    <linearGradient id="red" x1="0" x2="1"><stop stop-color="#141b2a"/><stop offset=".42" stop-color="#ef4444"/><stop offset="1" stop-color="#111827"/></linearGradient>
    <linearGradient id="hyper" x1="0" x2="1"><stop stop-color="#22d3ee"/><stop offset=".35" stop-color="#8b5cf6"/><stop offset=".68" stop-color="#f97316"/><stop offset="1" stop-color="#22c55e"/></linearGradient>
    <linearGradient id="doppler" x1="0" x2="1"><stop stop-color="#2dd4bf"/><stop offset=".45" stop-color="#8b5cf6"/><stop offset="1" stop-color="#f43f5e"/></linearGradient>
    <radialGradient id="glow" cx="50%" cy="42%" r="62%"><stop stop-color="#ff7a18" stop-opacity=".25"/><stop offset=".48" stop-color="#4f7cff" stop-opacity=".13"/><stop offset="1" stop-color="#070d18" stop-opacity="0"/></radialGradient>
    <filter id="shadow"><feDropShadow dx="0" dy="26" stdDeviation="18" flood-color="#000" flood-opacity=".5"/></filter>
  </defs>
  <rect width="980" height="640" rx="54" fill="url(#bg)"/>
  <circle cx="500" cy="305" r="305" fill="url(#glow)"/>
  <g filter="url(#shadow)">
    <rect x="98" y="88" width="784" height="470" rx="48" fill="#0b1220" stroke="#263247" stroke-width="7" opacity=".95"/>
    <rect x="148" y="136" width="684" height="122" rx="28" fill="#ffffff" opacity=".055"/>
    <rect x="148" y="300" width="684" height="122" rx="28" fill="#ffffff" opacity=".048"/>
    <rect x="148" y="462" width="684" height="50" rx="18" fill="#ffffff" opacity=".035"/>
    <g transform="translate(180 160)">
      <path d="M20 62h365l30-35h118c35 0 64 20 79 51l23 50h-91l-15-31h-98l-44 48h-90l43-48H140l-34 36H24l31-42H18c-37 0-36-29 2-29z" fill="url(#red)"/>
      <path d="M105 27h205l34-41h92l-35 41h125c28 0 50 14 60 35H76c6-20 16-35 29-35z" fill="#f8fafc" opacity=".2"/>
      <path d="M170 81h112M360 65h150M470 104h72" stroke="#0b1020" stroke-width="13" stroke-linecap="round" opacity=".52"/>
      <path d="M135 100h80M236 100h34" stroke="#ef4444" stroke-width="10" stroke-linecap="round"/>
      <text x="0" y="164" font-family="Inter,Arial" font-size="25" font-weight="900" fill="#f8fafc">AK-47 | Redline</text>
    </g>
    <g transform="translate(196 322)">
      <path d="M18 62h410l44-42h84c40 0 74 20 91 50l28 52h-98l-18-31h-91l-68 47h-100l62-47H154l-46 37H28l39-43H18c-36 0-36-23 0-23z" fill="url(#hyper)"/>
      <path d="M120 32h290l48-43h82l-45 43h132c24 0 44 10 56 27H91c8-18 17-27 29-27z" fill="#e5e7eb" opacity=".18"/>
      <circle cx="610" cy="117" r="21" fill="#0b1020" opacity=".8"/>
      <path d="M220 98h120M440 70h115" stroke="#0b1020" stroke-width="13" stroke-linecap="round" opacity=".42"/>
      <text x="0" y="164" font-family="Inter,Arial" font-size="25" font-weight="900" fill="#f8fafc">AWP | Hyper Beast</text>
    </g>
    <g transform="translate(603 118) rotate(7)">
      <rect x="0" y="0" width="268" height="152" rx="30" fill="#101827" stroke="#ffffff" stroke-opacity=".1"/>
      <path d="M55 89C80 35 144 19 222 30c-48 15-84 41-114 74 41-16 92-20 154-10-33 34-75 55-131 67-54 11-106-11-159-51z" fill="url(#doppler)"/>
      <circle cx="58" cy="90" r="23" fill="none" stroke="#e0f2fe" stroke-width="9"/>
      <circle cx="58" cy="90" r="10" fill="#0b1020"/>
      <text x="24" y="132" font-family="Inter,Arial" font-size="20" font-weight="900" fill="#f8fafc">★ Karambit | Doppler</text>
    </g>
  </g>
</svg>